<svg xmlns="http://www.w3.org/2000/svg" width="98" height="63" viewBox="0 0 98 63" fill="none"><g clip-path="url(#clip0_2023_169)"><path d="M98 6.92199L87.425 0.0050997L46.5144 0H0V17.4002L3.41305 20.1455L9.28958 62.9932H58.6152L58.7499 62.0158L59.558 62.9966L97.9983 63V26.9587H98V6.92199Z" fill="#054E70"></path><path d="M60.8724 60.2275L56.8609 55.3556L56.1926 60.2241H11.7138L6.01632 18.6802L2.77716 16.076V2.76917H46.5144L86.5965 2.77596L95.2228 8.41793L95.2194 60.2309L60.8724 60.2275Z" fill="#0990CF"></path><path d="M61.747 58.3814L55.6028 50.9154L54.5765 58.378H13.3283L7.75184 17.7028L4.63031 15.192V4.61694H46.5144L86.0424 4.62204L93.3714 9.41406L93.368 58.3831L61.747 58.3814Z" fill="#054E70"></path><path d="M11.3763 30.2327L9.52141 16.7066L6.51752 14.2927V6.50037H46.5144L85.4781 6.50547L91.4824 10.4322L91.4807 30.2327H11.3763Z" fill="#076794"></path><path d="M85.2121 7.39121L46.5144 7.38611L42.745 34.8701L38.2682 7.38611H29.6332L25.1598 34.8701L21.3904 7.38611H7.40747V13.8678L10.3534 16.2375L15.7526 55.6072H29.8975L33.9533 33.5068L38.0056 55.6072H52.1522L57.5446 16.2851H57.7901H78.4355V19.5727H90.5926V10.91L85.2121 7.39121Z" fill="#054E70"></path><path d="M84.936 8.3143L47.3225 8.3092L42.849 35.4175L37.4805 8.3092H30.4209L25.1189 35.1812L20.5823 8.3092H8.33319V13.4276L11.2212 15.7497L16.5607 54.6842H29.1252L33.8646 29.7602L38.7762 54.6842H51.3442L56.7365 15.3621H79.3612V18.6497H89.6668V11.4081L84.936 8.3143Z" fill="white"></path><path d="M76.3369 27.0506V34.35L78.4304 35.9462V35.9377L78.4389 35.9462V43.4274L78.4355 46.7184H71.6213L69.9421 44.5188V22.2161H59.0176L57.7884 31.1762L57.7867 49.2071L63.0614 55.6106H78.4355L78.4304 55.614H90.5909V27.0506H76.3369Z" fill="#054E70"></path><path d="M63.4978 54.6875L58.7124 48.8755L58.7141 31.2391L59.8257 23.139H69.0146V44.8298L71.161 47.6414H79.3612L79.3646 35.5789L77.5132 33.6325L77.5115 34.083L77.2626 33.8943V27.9736H89.6652V54.6909L63.4978 54.6875Z" fill="white"></path><path d="M25.1581 43.7452L23.3441 32.1162H14.4006L17.3687 53.761H28.3529L32.3899 32.1162H27.197L25.1581 43.7452Z" fill="#CCE9F2"></path><path d="M42.9666 43.1163L40.9294 32.1162H35.3273L39.5485 53.761H50.536L53.5041 32.1162H44.6425L42.9666 43.1163Z" fill="#CCE9F2"></path><path d="M78.1899 32.1162V33.0019L80.2903 35.21L80.2869 48.5644H70.7024L68.0889 45.1408V32.1162H59.6398L59.6381 48.5457L63.9359 53.7644L88.7394 53.7678V32.1162H78.1899Z" fill="#CCE9F2"></path></g><defs><clipPath id="clip0_2023_169"><rect width="98" height="63" fill="white"></rect></clipPath></defs></svg>